<svg width="111" height="134" viewBox="0 0 111 134" fill="none" xmlns="http://www.w3.org/2000/svg">
<path d="M54.8488 110.481C45.7311 115.147 40.9667 114.693 33.0624 108.594M38.3693 105.522C28.0348 110.55 8.48286 106.081 14.0692 81.7804M12.1139 91.5563C2.8966 87.6459 -1.29309 66.9768 9.0415 57.4801M17.5967 65.0216C-7.43798 47.1455 15.745 19.2142 33.6209 41.5592M15.745 33.1799C12.9519 24.8005 21.3313 6.92446 39.2073 18.6556M32.2245 14.1866C32.2245 4.68996 47.866 -3.68943 55.1282 10.8348M55.4075 10.8348V110.27M40.3246 32.0626C46.9351 34.2938 49.7655 37.0767 54.2902 42.9558M38.3694 83.4563C42.2797 81.7804 49.4862 83.722 54.0109 89.6011M22.1692 52.1732C25.2416 59.156 37.2521 63.9043 47.866 62.5077M19.6554 75.0769C27.2814 75.2874 33.3417 70.8872 34.459 61.9491" stroke="#01DBC1" stroke-width="6" stroke-linecap="round"/>
<path d="M55.9661 110.495C65.0838 115.161 69.8482 114.707 77.7525 108.608M72.4456 105.536C82.7801 110.564 102.332 106.095 96.7457 81.7944M98.701 91.5704C107.918 87.66 112.108 66.9909 101.773 57.4942M93.2183 65.0356C118.253 47.1596 95.0699 19.2283 77.194 41.5733M95.0699 33.194C97.863 24.8146 89.4836 6.93854 71.6076 18.6697M78.5904 14.2007C78.5904 4.70404 62.9489 -3.67535 55.6867 10.8489M55.4075 10.8489V110.284M70.4904 32.0767C63.8798 34.3079 61.0494 37.0908 56.5247 42.9699M72.4456 83.4703C68.5352 81.7944 61.3287 83.736 56.804 89.6152M88.6457 52.1872C85.5733 59.1701 73.5628 63.9184 62.9489 62.5218M91.1595 75.0909C83.5335 75.3014 77.4732 70.9012 76.3559 61.9632" stroke="#01DBC1" stroke-width="6" stroke-linecap="round"/>
<path d="M22.492 124.772C22.492 125.604 22.132 126.236 21.412 126.668C21.804 126.812 22.132 127.06 22.396 127.412C22.66 127.764 22.792 128.264 22.792 128.912C22.792 129.552 22.552 130.06 22.072 130.436C21.6 130.812 20.92 131 20.032 131H17.2C17.064 131 16.952 130.956 16.864 130.868C16.776 130.772 16.732 130.648 16.732 130.496V122.816C16.732 122.728 16.744 122.672 16.768 122.648C16.8 122.616 16.86 122.6 16.948 122.6H19.684C21.556 122.6 22.492 123.324 22.492 124.772ZM19.036 124.544V126.116H19.096C19.864 126.116 20.248 125.86 20.248 125.348C20.248 125.068 20.172 124.864 20.02 124.736C19.876 124.608 19.632 124.544 19.288 124.544H19.036ZM19.036 127.532V129.092H19.252C19.596 129.092 19.848 129.028 20.008 128.9C20.168 128.772 20.248 128.568 20.248 128.288C20.248 128.008 20.172 127.812 20.02 127.7C19.876 127.588 19.632 127.532 19.288 127.532H19.036ZM27.625 125.936C27.777 125.936 27.853 126.216 27.853 126.776C27.853 126.944 27.833 127.144 27.793 127.376C27.761 127.6 27.697 127.712 27.601 127.712H26.077V128.912H28.285C28.421 128.912 28.513 129.088 28.561 129.44C28.585 129.592 28.597 129.756 28.597 129.932C28.597 130.1 28.573 130.32 28.525 130.592C28.477 130.864 28.397 131 28.285 131H24.181C23.877 131 23.725 130.876 23.725 130.628V122.912C23.725 122.704 23.817 122.6 24.001 122.6H28.297C28.465 122.6 28.549 122.956 28.549 123.668C28.549 124.372 28.465 124.724 28.297 124.724H26.077V125.936H27.625ZM29.955 128.072C30.107 128.192 30.367 128.356 30.735 128.564C31.111 128.772 31.467 128.876 31.803 128.876C32.147 128.876 32.319 128.744 32.319 128.48C32.319 128.36 32.271 128.256 32.175 128.168C32.079 128.072 31.903 127.964 31.647 127.844C31.391 127.724 31.199 127.632 31.071 127.568C30.943 127.496 30.771 127.384 30.555 127.232C30.347 127.072 30.187 126.908 30.075 126.74C29.755 126.284 29.595 125.704 29.595 125C29.595 124.296 29.855 123.704 30.375 123.224C30.903 122.736 31.591 122.492 32.439 122.492C33.015 122.492 33.547 122.556 34.035 122.684C34.523 122.804 34.775 122.964 34.791 123.164C34.791 123.188 34.791 123.212 34.791 123.236C34.791 123.516 34.703 123.872 34.527 124.304C34.351 124.728 34.227 124.964 34.155 125.012C33.643 124.748 33.183 124.616 32.775 124.616C32.375 124.616 32.175 124.76 32.175 125.048C32.175 125.224 32.323 125.38 32.619 125.516C32.683 125.548 32.775 125.592 32.895 125.648C33.015 125.704 33.151 125.772 33.303 125.852C33.463 125.924 33.631 126.02 33.807 126.14C33.991 126.252 34.187 126.404 34.395 126.596C34.819 126.996 35.031 127.524 35.031 128.18C35.031 129.036 34.795 129.736 34.323 130.28C33.851 130.824 33.123 131.104 32.139 131.12C31.659 131.12 31.223 131.08 30.831 131C30.447 130.92 30.111 130.764 29.823 130.532C29.535 130.3 29.391 130.02 29.391 129.692C29.391 129.364 29.451 129.04 29.571 128.72C29.691 128.392 29.819 128.176 29.955 128.072ZM39.63 130.808C39.63 130.968 39.234 131.048 38.442 131.048C37.65 131.048 37.254 130.968 37.254 130.808V124.784H35.814C35.678 124.784 35.582 124.6 35.526 124.232C35.502 124.056 35.49 123.876 35.49 123.692C35.49 123.508 35.502 123.328 35.526 123.152C35.582 122.784 35.678 122.6 35.814 122.6H41.034C41.17 122.6 41.266 122.784 41.322 123.152C41.346 123.328 41.358 123.508 41.358 123.692C41.358 123.876 41.346 124.056 41.322 124.232C41.266 124.6 41.17 124.784 41.034 124.784H39.63V130.808ZM47.7351 122.492C48.3191 122.492 48.8311 122.576 49.2711 122.744C49.7191 122.904 49.9431 123.124 49.9431 123.404C49.9431 123.684 49.8351 124.032 49.6191 124.448C49.4111 124.856 49.2351 125.06 49.0911 125.06C49.0511 125.06 49.0031 125.04 48.9471 125C48.8991 124.952 48.7791 124.904 48.5871 124.856C48.4031 124.8 48.2431 124.772 48.1071 124.772C47.6431 124.772 47.2671 124.936 46.9791 125.264C46.6991 125.592 46.5591 126.096 46.5591 126.776C46.5591 127.448 46.7031 127.948 46.9911 128.276C47.2871 128.604 47.6591 128.768 48.1071 128.768C48.2911 128.768 48.4951 128.744 48.7191 128.696C48.9511 128.64 49.1151 128.564 49.2111 128.468C49.2271 128.452 49.2591 128.444 49.3071 128.444C49.3551 128.444 49.4431 128.536 49.5711 128.72C49.7071 128.896 49.8311 129.132 49.9431 129.428C50.0551 129.716 50.1111 129.94 50.1111 130.1C50.1111 130.412 49.8711 130.66 49.3911 130.844C48.9111 131.028 48.3431 131.12 47.6871 131.12C46.6311 131.12 45.7631 130.748 45.0831 130.004C44.4031 129.26 44.0631 128.212 44.0631 126.86C44.0631 125.5 44.4111 124.432 45.1071 123.656C45.8111 122.88 46.6871 122.492 47.7351 122.492ZM54.5937 131.12C53.4737 131.12 52.5577 130.752 51.8457 130.016C51.1417 129.28 50.7897 128.208 50.7897 126.8C50.7897 125.384 51.1457 124.312 51.8577 123.584C52.5777 122.856 53.5017 122.492 54.6297 122.492C55.7657 122.492 56.6817 122.852 57.3777 123.572C58.0737 124.284 58.4217 125.368 58.4217 126.824C58.4217 128.272 58.0657 129.352 57.3537 130.064C56.6417 130.768 55.7217 131.12 54.5937 131.12ZM54.6057 124.796C54.2217 124.796 53.8977 124.972 53.6337 125.324C53.3777 125.676 53.2497 126.172 53.2497 126.812C53.2497 127.444 53.3737 127.932 53.6217 128.276C53.8697 128.612 54.1937 128.78 54.5937 128.78C55.0017 128.78 55.3297 128.608 55.5777 128.264C55.8337 127.92 55.9617 127.428 55.9617 126.788C55.9617 126.148 55.8297 125.656 55.5657 125.312C55.3097 124.968 54.9897 124.796 54.6057 124.796ZM63.3092 122.84C63.3092 122.68 63.7412 122.6 64.6052 122.6C65.4772 122.6 65.9132 122.68 65.9132 122.84V128.348C65.9132 129.164 65.6212 129.832 65.0372 130.352C64.4532 130.864 63.6452 131.12 62.6132 131.12C61.5892 131.12 60.7532 130.856 60.1052 130.328C59.4652 129.792 59.1452 129.072 59.1452 128.168V122.852C59.1452 122.692 59.5772 122.612 60.4412 122.612C61.3132 122.612 61.7492 122.692 61.7492 122.852V128.264C61.7492 128.424 61.8332 128.552 62.0012 128.648C62.1772 128.744 62.3612 128.792 62.5532 128.792C62.7452 128.792 62.9172 128.748 63.0692 128.66C63.2292 128.572 63.3092 128.44 63.3092 128.264V122.84ZM73.4963 130.736C73.4963 130.904 73.1203 130.988 72.3683 130.988C71.6163 130.988 71.2083 130.928 71.1443 130.808L69.1403 127.064V130.796C69.1403 130.94 68.7683 131.012 68.0243 131.012C67.2883 131.012 66.9203 130.94 66.9203 130.796V122.768C66.9203 122.648 67.2363 122.588 67.8683 122.588C68.1163 122.588 68.4043 122.612 68.7323 122.66C69.0683 122.7 69.2723 122.78 69.3443 122.9L71.2643 126.596V122.828C71.2643 122.676 71.6363 122.6 72.3803 122.6C73.1243 122.6 73.4963 122.676 73.4963 122.828V130.736ZM78.3136 130.808C78.3136 130.968 77.9176 131.048 77.1256 131.048C76.3336 131.048 75.9376 130.968 75.9376 130.808V124.784H74.4976C74.3616 124.784 74.2656 124.6 74.2096 124.232C74.1856 124.056 74.1736 123.876 74.1736 123.692C74.1736 123.508 74.1856 123.328 74.2096 123.152C74.2656 122.784 74.3616 122.6 74.4976 122.6H79.7176C79.8536 122.6 79.9496 122.784 80.0056 123.152C80.0296 123.328 80.0416 123.508 80.0416 123.692C80.0416 123.876 80.0296 124.056 80.0056 124.232C79.9496 124.6 79.8536 124.784 79.7176 124.784H78.3136V130.808ZM83.017 130.832C83.017 130.96 82.637 131.024 81.877 131.024C81.109 131.024 80.725 130.964 80.725 130.844V123.02C80.725 122.74 80.873 122.6 81.169 122.6H83.461C85.565 122.6 86.617 123.42 86.617 125.06C86.617 125.556 86.521 126.008 86.329 126.416C86.137 126.816 85.865 127.136 85.513 127.376L87.025 129.896C86.961 130.088 86.753 130.308 86.401 130.556C85.921 130.9 85.525 131.072 85.213 131.072C84.901 131.072 84.669 130.96 84.517 130.736L83.389 128.108H83.017V130.832ZM83.017 124.724V126.524H83.077C83.837 126.524 84.217 126.208 84.217 125.576C84.217 125.288 84.141 125.076 83.989 124.94C83.845 124.796 83.605 124.724 83.269 124.724H83.017ZM91.9791 122.996C92.0831 122.716 92.5951 122.576 93.5151 122.576C93.7471 122.576 94.0191 122.592 94.3311 122.624C94.6511 122.656 94.7991 122.696 94.7751 122.744L92.2791 127.76V130.688C92.2791 130.824 92.0591 130.92 91.6191 130.976C91.3951 131.008 91.1751 131.024 90.9591 131.024C90.7431 131.024 90.5271 131.012 90.3111 130.988C89.8711 130.932 89.6511 130.832 89.6511 130.688V127.832L87.0711 122.768C87.0391 122.72 87.2031 122.676 87.5631 122.636C87.9231 122.588 88.2271 122.564 88.4751 122.564C89.4591 122.564 89.9991 122.708 90.0951 122.996L90.9711 125.444L91.9791 122.996Z" fill="white"/>
</svg>
